<svg width="23" height="25" viewBox="0 0 23 25" fill="none" xmlns="http://www.w3.org/2000/svg">
<path fill-rule="evenodd" clip-rule="evenodd" d="M19.4509 12.2783C18.8763 12.4267 18.2855 12.5017 17.6923 12.5016H17.6746V12.8891C17.6746 14.5124 17.9276 16.1358 18.4566 17.6948L19.113 19.6824H2.07531V19.661L2.72992 17.6734C3.24178 16.1235 3.50634 14.5014 3.51369 12.8677V8.93703C3.51369 7.9316 3.726 6.94939 4.12762 6.05111C4.52923 5.13319 5.10069 4.32063 5.842 3.65808C6.58331 2.97589 7.452 2.46157 8.38262 2.16333C9.33446 1.84188 10.3288 1.73473 11.3018 1.84188L11.5142 1.87402C11.836 1.29256 12.2367 0.759382 12.7048 0.28998C12.2998 0.18108 11.8877 0.100526 11.4717 0.0488917C10.2438 -0.079689 8.99477 0.0488917 7.80938 0.454278C6.624 0.838234 5.54477 1.47935 4.63538 2.33477C3.72146 3.16813 2.99303 4.18765 2.49815 5.32606C2.00082 6.46403 1.74124 7.69327 1.73562 8.93703V12.8659C1.73302 14.304 1.5043 15.7326 1.058 17.0983L0 20.2575L0.847462 21.4326H7.04862C7.04862 22.3719 7.429 23.2899 8.08538 23.9542C8.74 24.6149 9.65115 25.0007 10.5835 25.0007C11.5142 25.0007 12.4235 24.6167 13.0799 23.9542C13.7363 23.2916 14.1185 22.3719 14.1185 21.4326H20.3196L21.1653 20.2575L20.1285 17.0965C19.6808 15.7244 19.4521 14.2891 19.4509 12.8445V12.2766V12.2783ZM10.5835 23.2523C10.8165 23.2507 11.0468 23.2025 11.2612 23.1106C11.4756 23.0186 11.6698 22.8847 11.8326 22.7166C11.9996 22.5541 12.1311 22.3582 12.2186 22.1413C12.306 21.9245 12.3475 21.6916 12.3404 21.4576H8.80546C8.80546 21.9273 8.99477 22.3755 9.33446 22.7184C9.49757 22.886 9.69188 23.0195 9.90623 23.1111C10.1206 23.2028 10.3508 23.2508 10.5835 23.2523Z" fill="white"/>
<path d="M17.6925 10.7151C18.3895 10.7151 19.0797 10.5765 19.7236 10.3072C20.3676 10.038 20.9527 9.64337 21.4456 9.14587C21.9384 8.64838 22.3294 8.05777 22.5961 7.40777C22.8629 6.75776 23.0002 6.06109 23.0002 5.35753C23.0002 4.65397 22.8629 3.9573 22.5961 3.30729C22.3294 2.65729 21.9384 2.06668 21.4456 1.56918C20.9527 1.07169 20.3676 0.677059 19.7236 0.407818C19.0797 0.138577 18.3895 -1.04839e-08 17.6925 0C16.2848 2.11731e-08 14.9347 0.564452 13.9394 1.56918C12.944 2.57392 12.3848 3.93662 12.3848 5.35753C12.3848 6.77843 12.944 8.14114 13.9394 9.14587C14.9347 10.1506 16.2848 10.7151 17.6925 10.7151Z" fill="#F71111"/>
</svg>
