<svg width="20" height="20" viewBox="0 0 20 20" fill="none" xmlns="http://www.w3.org/2000/svg">
    <path d="M18.2097 0.323285L10.001 8.53282L1.79238 0.323285C1.59495 0.142599 1.33543 0.0450604 1.06787 0.0509892C0.800322 0.056918 0.545374 0.165857 0.356139 0.355111C0.166905 0.544366 0.0579777 0.799341 0.0520495 1.06692C0.0461213 1.3345 0.143649 1.59405 0.324316 1.7915L8.52881 10.001L0.322234 18.2085C0.221973 18.3041 0.141825 18.4187 0.0865018 18.5457C0.0311781 18.6727 0.00179485 18.8094 7.96885e-05 18.9479C-0.00163547 19.0864 0.0243521 19.2239 0.0765142 19.3522C0.128676 19.4805 0.20596 19.5971 0.303824 19.6951C0.401688 19.7931 0.518155 19.8706 0.646381 19.9229C0.774607 19.9753 0.912003 20.0015 1.05049 19.9999C1.18898 19.9984 1.32577 19.9692 1.45282 19.9141C1.57987 19.8589 1.69461 19.7789 1.7903 19.6788L10.001 11.4713L18.2097 19.6809C18.4071 19.8616 18.6667 19.9591 18.9342 19.9532C19.2018 19.9472 19.4567 19.8383 19.6459 19.6491C19.8352 19.4598 19.9441 19.2048 19.95 18.9372C19.956 18.6697 19.8584 18.4101 19.6778 18.2127L11.4691 10.0031L19.6778 1.7915C19.778 1.69595 19.8582 1.58131 19.9135 1.45432C19.9688 1.32734 19.9982 1.19058 19.9999 1.05208C20.0016 0.913575 19.9756 0.776128 19.9235 0.647814C19.8713 0.519501 19.794 0.402911 19.6962 0.304898C19.5983 0.206885 19.4818 0.129427 19.3536 0.0770777C19.2254 0.0247281 19.088 -0.00145652 18.9495 6.2499e-05C18.811 0.00158152 18.6742 0.0307738 18.5472 0.0859233C18.4201 0.141073 18.3054 0.221066 18.2097 0.321202V0.323285Z" fill="white" />
</svg>