<svg width="11" height="10" viewBox="0 0 11 10" fill="none" xmlns="http://www.w3.org/2000/svg">
<path d="M6.17384 4.97248L10.2238 0.922476C10.3149 0.816197 10.3624 0.679488 10.357 0.539668C10.3516 0.399848 10.2936 0.267216 10.1947 0.168274C10.0958 0.0693328 9.96313 0.0113701 9.82331 0.00596948C9.68349 0.000568837 9.54678 0.048128 9.4405 0.139143L5.3905 4.18914L1.3405 0.133587C1.23422 0.0425723 1.09751 -0.00498632 0.957694 0.000414325C0.817874 0.00581497 0.685242 0.0637772 0.5863 0.162719C0.487359 0.26166 0.429396 0.394293 0.423995 0.534113C0.418595 0.673933 0.466154 0.810642 0.557169 0.91692L4.60717 4.97248L0.551613 9.02248C0.493456 9.07228 0.446223 9.13357 0.412877 9.20249C0.37953 9.27142 0.360791 9.34649 0.357836 9.423C0.354881 9.49951 0.367773 9.57581 0.395703 9.6471C0.423633 9.71839 0.465999 9.78314 0.520141 9.83728C0.574282 9.89142 0.639031 9.93379 0.710322 9.96172C0.781614 9.98965 0.85791 10.0025 0.93442 9.99959C1.01093 9.99663 1.086 9.97789 1.15493 9.94455C1.22385 9.9112 1.28514 9.86397 1.33495 9.80581L5.3905 5.75581L9.4405 9.80581C9.54678 9.89682 9.68349 9.94438 9.82331 9.93898C9.96313 9.93358 10.0958 9.87562 10.1947 9.77668C10.2936 9.67774 10.3516 9.5451 10.357 9.40528C10.3624 9.26546 10.3149 9.12876 10.2238 9.02248L6.17384 4.97248Z" fill="#F71111"/>
</svg>
